<svg width="32" height="32" fill="none" version="1.1" id="svg16" xmlns="http://www.w3.org/2000/svg"><style>@media (prefers-color-scheme:dark){.shape{fill:#fff}}</style><path class="shape" d="M16 0C7.163 0 0 7.163 0 16c0 1.04.1 2.055.288 3.039L8.152 8.706l5.8 2-1.04 6.881 7.735-12.719 6.507 2.198-.018.065c-1.163 4.173-2.967 10.644-.966 11.2 1.074.299 3.043-1.763 5.141-4.8C30.356 6.434 25.253 0 16 0Z" fill="#3E424C" id="path12"/><path class="shape" d="M24.096 24.22c-4.77-1.441-4.212-6.336-3.875-8.498L13.232 27.15l-5.88-2 1.04-7.562-5.618 7.42C5.654 29.228 10.504 32 16 32c7.295 0 12.01-4 14.148-9.17-1.899 1.392-3.935 2.029-6.052 1.39Z" fill="#3E424C" id="path14"/></svg>